        <svg
          class="mx-auto"
          xmlns="http://www.w3.org/2000/svg"
          width="336"
          height="59"
          fill="none"
          viewBox="0 0 336 59"
        >
          <path
            fill="#D4C8A9"
            d="M335.293 32.121c-.479-.69-.958-1.38-1.596-1.897-.638-.518-1.277-.69-2.075-.863-1.277-.172-2.553.345-3.511 1.38v-.172c-.319-.69-1.117-.518-1.596-.173-.479.345-.958 1.035-1.117 1.553l-.479 2.07a70.66 70.66 0 01-31.76 1.552c-.958-.172-1.916-.345-2.873-.69 4.309-1.207 8.459-2.76 12.608-4.83.958-.517 1.756-.862 2.713-1.38l.479.518c.319.172.639.345 1.117.517.798.345 1.596.69 2.394.69.798.173 1.596 0 2.075-.69.16-.345.319-.862 0-1.207.958.173 1.915.172 2.873-.172 1.277-.518 2.713-1.38 3.192-2.933.479-1.552-.319-3.277-1.436-4.312-1.118-1.035-2.714-1.38-4.15-1.035-.798.172-1.596.69-2.234 1.207-.639.518-.958 1.38-1.437 2.07-.159-.172-.319-.172-.319-.345-.638-.172-1.117 0-1.596.518-.479.517-.638 1.035-.958 1.725-.319.69-.478 1.552-.478 2.415 0 .172 0 .172.159.345-5.267 2.932-10.853 5.174-16.758 6.554a112.442 112.442 0 01-10.693-3.622c-4.788-1.898-9.576-3.968-14.524-5.52-3.99-1.207-7.98-1.897-12.129-1.725.798-.69 1.277-1.725 1.915-2.587.16-.173.16-.345.319-.518 1.437 1.553 3.511 1.035 4.948 0 2.075-1.38 4.149-3.105 6.065-4.657.159-.172.159-.518 0-.69-2.075-1.207-4.788-2.242-7.182-1.207-2.235 1.034-3.352 3.277-4.15 5.692l-.319.345c-.798 1.035-1.277 2.242-2.235 3.105-.159.172-.159.517 0 .517-.638 0-1.276.173-1.755.173-4.15.517-7.98 2.07-11.811 3.967-2.713-.69-5.586-1.207-8.299-1.725 1.596-.345 3.033-1.035 4.469-1.897 1.756 1.38 3.99.862 5.586-.518 1.915-1.552 3.032-4.14 4.15-6.382.159-.345 0-.69-.32-.69-2.234-.173-4.468.345-6.384 1.552-.798.518-1.596 1.208-2.074 2.243-.479 1.035-.639 2.07-1.437 2.76l-.159.172c-1.916 1.208-3.99 2.07-6.384 1.898-.16 0-.32.172-.32.172-8.937-1.207-18.034-1.207-26.972.173h-.16l2.394-2.588c.798.345 1.756.518 2.714.518 1.915-.173 3.83-.863 5.426-2.07.958-.69 1.596-1.553 2.234-2.415.639-.863 1.277-2.242 1.118-3.45 0-.172-.32-.345-.479-.345h-.16c-2.553.518-5.107-.172-7.501.862-1.756.863-4.309 2.07-4.628 4.485-.16.863.159 1.38.478 1.898-.957 1.035-1.755 2.242-2.872 2.932-.16 0-.16.173-.16.345-3.99.69-7.98 1.552-11.97 2.587-.16-.172-.16-.517-.319-.69-.479-.862-.958-1.724-1.596-2.587.638 0 1.277-.345 1.915-.517.479.69 1.277 1.207 2.234 1.38 1.277.172 2.394-.173 3.512-.863 2.074-1.38 3.67-3.45 4.628-5.692.638-1.208.958-2.587 1.277-3.967 0-.345-.16-.518-.479-.346-2.234.863-4.628 1.035-6.863 1.726-1.915.69-3.99 2.07-4.628 4.312-.16.517-.319 1.207-.16 1.725 0 .345.16.862.479 1.035v.172l-1.915.518h-.16c-.159-.173-.319-.345-.319-.518-.798-.862-1.596-1.552-2.394-2.07 0 0 .16 0 .16-.172 2.234-1.898 3.192-4.83 3.192-7.762-.16-3.45-1.596-6.555-3.512-9.315-.478-.69-.957-1.38-1.596-2.07-.319-.345-.478-.69-.798-1.035-.319-.345-.478-.69-.798-.862-.319-.345-.798-.345-1.117 0-.159.345-.319.862-.479 1.207-.319.863-.478 1.553-.638 2.415-.319 1.725-.319 3.45-.16 5.175.16 1.552.32 3.277.639 4.83.479 2.07 1.117 4.14 2.234 6.037-.957-.345-1.755-.69-2.713-.863-3.192-.862-6.544-1.035-9.895-.69-1.915.173-3.99.518-5.905 1.208.957-1.725 1.596-3.795 1.915-5.692.319-1.553.479-3.105.638-4.83.16-1.725 0-3.45-.159-5.175-.16-.862-.32-1.725-.639-2.415-.159-.345-.319-.862-.479-1.207-.319-.518-.638-.345-1.117 0-.319.345-.479.69-.798.862-.319.345-.479.69-.798 1.035-.479.69-.957 1.38-1.596 2.07-1.915 2.76-3.351 5.865-3.511 9.315-.16 2.76.798 5.52 2.713 7.417-1.436.69-3.032 1.38-4.469 2.07-.957-.863-1.596-2.07-2.074-3.278 1.276-.69 2.074-2.07 2.394-3.45.478-2.242-.16-4.484-.958-6.382-.479-1.207-1.117-2.242-1.756-3.277-.159-.173-.319-.345-.478-.173-1.437 1.898-3.033 3.623-3.671 6.038-.319 1.207-.319 2.415-.16 3.45a5.595 5.595 0 001.437 2.932c.319.517.798.862 1.436 1.035h.638s.16.172.32.172h.159c.16.345.319.518.319.863.479.862.958 1.725 1.756 2.415-1.117.69-2.075 1.207-3.192 1.897-.319.173-.638.517-.958.69l-.159.173c-.16.172-.479.172-.639.345-2.234-.518-4.468-.863-6.703-1.38 0-.173 0-.173-.159-.345-1.118-.863-1.916-1.898-2.873-2.933.319-.517.638-1.035.479-1.897-.16-2.243-2.873-3.622-4.629-4.485-2.394-1.035-4.947-.345-7.501-.863h-.16c-.159 0-.478.173-.478.346-.16 1.207.478 2.414 1.117 3.45.638 1.034 1.436 1.724 2.234 2.414 1.596 1.208 3.511 1.898 5.427 2.07.957 0 1.915 0 2.713-.517.798.862 1.436 1.725 2.394 2.587h-.16c-8.937-1.38-17.875-1.38-26.972-.172 0-.173-.16-.173-.319-.173-2.235 0-4.469-.69-6.384-1.897 0 0 0-.173-.16-.173-.798-.69-.958-1.897-1.436-2.76-.479-1.035-1.118-1.725-2.075-2.242-1.915-1.207-4.15-1.725-6.384-1.553-.32 0-.479.346-.32.69 1.118 2.243 2.235 4.83 4.15 6.383 1.596 1.38 3.831 1.897 5.586.517 1.437.863 2.873 1.553 4.469 1.898-2.873.517-5.586 1.035-8.3 1.725-3.83-1.898-7.66-3.45-11.81-3.968-.638 0-1.276-.172-1.755-.172.16-.173.16-.345 0-.518-.958-.69-1.437-2.07-2.234-3.105l-.32-.345c-.798-2.242-2.075-4.657-4.15-5.692-2.393-1.035-4.947 0-7.181 1.207-.16.173-.32.518 0 .69 2.075 1.553 3.99 3.278 6.064 4.658 1.596 1.035 3.671 1.38 4.948 0 .16.172.16.345.32.517.638.863 1.116 1.898 1.914 2.588-4.15-.173-8.14.517-12.13 1.725-4.947 1.38-9.735 3.622-14.523 5.52a112.484 112.484 0 01-10.693 3.622c-5.746-1.38-11.332-3.795-16.758-6.555.16 0 .16-.172.16-.345 0-.862-.16-1.552-.48-2.415-.159-.69-.478-1.207-.957-1.725-.479-.517-.957-.69-1.596-.517-.16 0-.319.172-.319.345-.32-.69-.798-1.38-1.436-2.07-.639-.69-1.437-1.035-2.235-1.208-1.436-.345-3.032 0-4.15 1.035-1.116 1.035-2.074 2.76-1.436 4.313.48 1.552 1.916 2.415 3.192 2.932.958.345 1.916.345 2.873.172-.16.345-.16.863 0 1.208.479.69 1.277.862 2.075.69.798-.173 1.596-.345 2.394-.69.32-.173.798-.345 1.117-.518l.479-.517c.957.517 1.755 1.035 2.713 1.38 3.99 2.07 8.3 3.622 12.608 4.83-.957.172-1.915.345-2.872.69a66.083 66.083 0 01-31.76-1.553c-.16-.69-.16-1.38-.48-2.07-.16-.69-.638-1.207-1.117-1.552s-1.277-.345-1.596.172v.173c-.957-1.035-2.234-1.553-3.51-1.38-.799 0-1.437.345-2.076.862C1.41 30.57.771 31.086.452 31.95c-.798 1.552-.479 3.45.48 4.657 1.595 1.898 4.468 2.07 6.383.518-.16.345-.16.517 0 .862.32.863 1.277.345 1.756-.172.478-.518.957-1.035 1.277-1.725l.478-1.035c0-.173.16-.173.16-.345 1.117.345 2.234.69 3.351.862 10.375 2.415 21.227 2.415 31.601-.172.48-.173.798-.173 1.277-.345a55.484 55.484 0 0010.534 1.552c4.309.345 8.778 0 13.087-.862 4.628-.863 9.097-2.243 13.566-3.623 4.788-1.38 9.576-2.76 14.364-3.795 2.075 1.035 4.149 2.07 6.065 3.105.798.345 1.596.863 2.553 1.208-.798 0-1.596.172-2.394.345 0 0 0-.173-.159-.173-2.075-1.38-3.99.173-5.906 1.208l-3.351 2.07c-.638.345-1.117 1.035-.32 1.552.958.517 2.075.69 3.193.69 1.117 0 2.074 0 3.192-.518 1.596-.69 3.032-2.07 3.511-3.967 1.436-.345 2.873-.345 4.149-.172 3.192 1.38 6.544 2.587 10.055 3.277 1.117.173 2.394.345 3.511.517-.638.173-1.117.518-1.755.69 0 0-.16 0-.16-.172-2.234-.69-4.309.518-5.586 2.415-1.436 2.07-1.755 4.83-3.351 6.9-.16.172-.16.69.159.69 2.235.69 4.629-.173 6.384-1.725 1.915-1.898 2.713-4.485 2.713-7.245v-.172c.958-.69 2.075-1.035 3.352-1.208.16 0 .319-.172.319-.345 3.192.172 6.544 0 9.736-.69.319 0 .638-.172.957-.172a24.893 24.893 0 00-2.553 3.277s-.16 0-.16-.172h-.319c-3.671-.863-5.586 3.967-6.224 7.072-.798 3.622-.958 7.762-3.033 11.04-.159.344 0 .69.319.69 4.15-.69 7.342-4.14 9.417-7.936 1.117-1.897 2.234-4.14 2.394-6.554 0-1.38-.479-2.933-1.596-3.795.957-1.38 1.915-2.76 3.351-3.795l.16-.172c5.746-1.38 11.172-3.795 16.758-6.038 2.075.518 3.99 1.035 6.065 1.725-1.596.863-3.033 1.725-4.469 2.933-.319-.69-.798-1.208-1.436-1.553-.798-.345-1.596-.172-2.394 0-.798.345-1.437.69-2.235 1.208-.638.517-1.277 1.035-1.755 1.552-2.235 2.415-3.831 5.52-4.31 8.97a17.048 17.048 0 000 5.692c.16.862.32 1.897.639 2.76 0 .172.159.517.159.69 0 .172.16.517.32.69.319.517.957.172 1.276-.173 1.596-.862 2.873-2.07 4.15-3.277a20.424 20.424 0 003.352-4.14c.957-1.552 1.436-3.277 1.755-5.175.319-1.897.479-3.795.479-5.692V35.4c.319-.173.638-.518.958-.69a18.368 18.368 0 014.309-2.588l.159-.172c.798.172 1.756.517 2.554.69v.172c.798.863 1.596 1.898 2.075 2.933-.958.69-1.596 1.724-1.915 2.76-.479 1.207-.479 2.76-.479 3.967.159 2.76 1.277 5.52 2.234 7.934.639 1.38 1.277 2.933 1.756 4.485.159.345.479.345.638.173 1.756-2.415 3.033-5.348 3.352-8.452.319-2.933-.319-6.21-1.915-8.625-.479-.69-.958-1.38-1.596-1.897-.479-.345-.958-.518-1.437-.518 0-.172-.159-.345-.159-.517-.479-.863-.958-1.553-1.596-2.243.798.173 1.596.518 2.234.69h.16c.478.173 1.117.345 1.596 0 .159 0 .319-.172.319-.345l1.915-.517c-.16.69 0 1.38 0 2.07 0 0 0 .172-.16.172-1.117 1.553-.798 3.795.16 5.347.479.863 1.117 1.38 1.915 1.725.798.345 1.437.518 2.235.69.798.173 1.755.345 2.553.863.16.172.479 0 .479-.173.638-1.725 0-3.622-.958-5.002a7.864 7.864 0 00-1.596-1.725c-.638-.517-1.276-1.035-1.915-1.38a4.15 4.15 0 00-2.075-.517c-.159-.518-.159-1.208-.159-1.725v-.345c.957-.345 1.755-.518 2.713-.863 0 0 0 .173.16.173a28.555 28.555 0 014.309 2.587c.319.173.638.518.957.69v.863c0 1.897.16 3.794.479 5.692.319 1.897.958 3.622 1.756 5.175a20.42 20.42 0 003.351 4.14c1.277 1.207 2.714 2.414 4.15 3.277.319.172.958.69 1.277.172.159-.172.159-.517.319-.69 0-.172.16-.517.16-.69.319-.862.478-1.897.638-2.76.16-1.38.319-2.932.16-4.312.319.345.798.863 1.276 1.035.479.345.958.518 1.437.69.479.172.957.345 1.277.69.319.517.478 1.035.478 1.725 0 .345.479.345.639.172 1.117-2.242 1.596-4.83 1.117-7.417-.319-2.587-1.596-5.002-3.511-6.554-1.277-1.035-2.873-1.553-4.469-1.035-.16 0-.16.345-.16.345-.319-.173-.638-.518-.957-.863-.958-.862-1.756-1.897-2.235-3.105 3.671 1.38 7.182 2.76 11.013 3.623 0 0 0 .172.159.172 1.437 1.035 2.394 2.415 3.352 3.795-1.117.862-1.596 2.242-1.596 3.795 0 2.242 1.277 4.657 2.394 6.554 2.075 3.795 5.267 7.245 9.416 7.935.32 0 .639-.345.32-.69-2.075-3.105-2.235-7.245-3.033-11.04-.638-2.932-2.713-7.762-6.224-7.072h-.319s-.16 0-.16.173c-.638-1.208-1.596-2.242-2.554-3.277.32 0 .639.172.958.172 3.192.518 6.384.863 9.736.69 0 .173.159.173.319.345 1.277.173 2.394.517 3.351 1.207v.173c.16 2.587.958 5.347 2.714 7.245 1.755 1.725 4.149 2.415 6.384 1.725.319-.173.319-.518.159-.69-1.596-1.898-2.075-4.658-3.351-6.9-1.277-2.07-3.352-3.277-5.586-2.415 0 0-.16 0-.16.172-.479-.345-1.117-.517-1.756-.69 1.118-.172 2.394-.344 3.512-.517 3.511-.69 6.862-1.725 10.054-3.277 1.437-.173 2.873-.173 4.15.172.479 1.898 1.915 3.278 3.511 3.968.958.345 2.075.517 3.192.517.958 0 2.235-.172 3.192-.69.798-.517.319-1.207-.319-1.552l-3.352-2.07c-1.755-1.208-3.83-2.76-5.905-1.208-.159 0-.159.173-.159.173-.798-.173-1.596-.345-2.394-.345.798-.345 1.596-.863 2.553-1.208 2.075-1.035 3.99-2.07 6.065-3.104 4.788 1.035 9.576 2.414 14.364 3.794 4.469 1.38 8.938 2.76 13.566 3.623 4.309.862 8.618 1.035 13.087.862a55.487 55.487 0 0010.534-1.552c.479.172.798.172 1.277.345 10.374 2.414 21.226 2.587 31.6.172 1.118-.345 2.235-.517 3.352-.862 0 .172 0 .172.16.345l.478 1.035c.32.69.798 1.207 1.277 1.725.479.345 1.437 1.034 1.756.172.159-.345 0-.517 0-.862 1.915 1.38 4.788 1.38 6.384-.518 1.596-.345 1.915-2.242 1.117-3.795zm-26.653-7.417v-.69s.159 0 .159-.172c.32-.69.639-1.38 1.277-1.898.479-.517.958-.862 1.596-1.207 1.277-.518 2.554-.345 3.671.345s2.075 2.07 1.915 3.45c-.159 1.38-1.436 2.242-2.394 2.76-.798.345-1.755.517-2.713.517h-.16c-.478 0-.957-.172-1.436-.345.479-.172.958-.517 1.117-1.035.16-.345.16-.69 0-1.035-.159-.345-.479-.345-.638-.517-.639-.173-1.277-.173-1.756 0-.159 0-.479.172-.638.172-.16.173 0 0 0-.345zm-2.873 2.933c0-1.035.319-2.243.958-3.278.159-.345.478-.69.957-.69.16 0 .319 0 .479.173.16.172 0 .517 0 .69-.16.69-.319 1.207-.638 1.724-.16.346.159.69.478.518.639-.69 1.596-1.035 2.554-1.035.319 0 .798.173.638.517l-.478.518c-.32.172-.479.345-.798.345a7.433 7.433 0 01-1.756.69c-.479.172-.319.863.16.69a3.608 3.608 0 011.915 0c.319 0 .479.172.798.345.159.172.159.345.159.69-.319.517-.957.517-1.436.345l-1.915-.518-.958-.517c-.159-.173-.479-.173-.638-.518 0-.172-.16-.172-.319-.172h-.16v-.517zm-44.528-12.075c-2.235 0-4.31.862-6.225 2.242a2.222 2.222 0 01-.638.518c.638-1.38 1.596-2.587 2.873-3.277 1.915-1.035 4.149-.173 6.064.862l-4.788 3.622c-1.276.863-3.032 1.898-4.468 1.035.159 0 .319-.172.319-.345 0-.172-.16-.345-.319-.345.319-.345.638-.517.957-.862 1.756-1.38 3.831-2.242 6.065-2.242.638-.346.638-1.208.16-1.208zm-23.142 4.485c.319-.345-.16-1.035-.479-.69-.958 1.035-2.075 2.07-3.192 3.105 0-.173.159-.345.159-.518.32-1.035.958-1.897 1.916-2.587 1.596-1.208 3.67-1.725 5.586-1.553-.798 1.725-1.756 3.623-3.033 5.003s-3.351 2.242-5.107 1.207a46.902 46.902 0 004.15-3.967zm-27.132-.863a9.57 9.57 0 01-1.756 1.898c-1.277 1.035-2.873 1.897-4.469 2.07-.798.172-2.234.172-3.032-.173.159-.172.319-.345.479-.69 1.436-1.552 3.192-2.76 5.107-3.622h.159c1.437-.69 3.033-1.208 4.469-1.898 0 .863-.638 1.725-.957 2.415zM200.91 20.91c.159-1.035 1.117-1.725 1.755-2.242.798-.518 1.756-1.208 2.714-1.553 1.276-.517 2.713-.517 4.149-.517-.638.345-1.436.517-2.075.862-2.074.69-3.83 1.898-5.426 3.45l-1.117 1.208s-.16-.518 0-1.208zm-15.322.863c.319-.863.958-1.725 1.596-2.243 1.596-1.38 3.831-1.897 5.905-2.242 1.118-.172 2.075-.517 3.192-.863-.478 2.07-1.276 4.14-2.553 5.693-.639.862-1.437 1.725-2.394 2.415-.958.69-1.915 1.38-3.033 1.38-.798 0-1.596-.345-2.234-1.035 2.234-1.035 3.99-3.105 5.905-4.658.798-.69 1.596-1.38 2.394-1.897.319-.173 0-.863-.319-.69-2.873 1.897-5.107 5.002-8.14 6.555 0-.173 0-.345-.159-.518-.16 0-.16-.172-.319-.172 0-.173-.16-.345-.16-.518 0-.345.16-.862.319-1.207zm-36.867-1.38c-.16-.345-.16-.518-.32-.863-.319-1.035-.638-1.897-.798-2.932-.319-1.035-.478-2.07-.319-3.277 0-1.035.319-2.243.798-3.105.16-.345-.319-.69-.479-.345-1.117 1.897-1.117 4.312-.638 6.382.16 1.035.479 2.07.798 3.277.16.345.16.69.319.863v.172c-.159.345-.638.345-.798.173-.319-.173-.638-.518-.957-.863-.639-.69-.958-1.552-1.118-2.415-.478-2.07.32-4.312 1.437-5.864l1.915-2.588c.479.69.958 1.553 1.277 2.415.479.863.798 1.898 1.117 2.933.16 1.034.319 2.07.16 3.104-.16.863-.479 1.553-.958 2.243-.479 0-.958.345-1.436.69zm-17.237 2.76c-1.596-.345-3.192-1.035-4.469-2.07-.638-.518-1.277-1.208-1.596-1.898-.319-.517-.958-1.38-1.117-2.242 1.436.69 3.032 1.207 4.469 1.897h.159c1.915.69 3.671 1.898 5.107 3.623.16.172.32.345.479.69-.798.172-2.234.172-3.032 0zm3.671-.69l-1.118-1.208c-1.596-1.552-3.351-2.76-5.426-3.45-.638-.345-1.436-.517-2.075-.862 1.437 0 2.873 0 4.15.517.957.345 1.915.863 2.713 1.553.798.517 1.596 1.207 1.756 2.242.478.345.319.863 0 1.208zm-37.666.172c-1.277-1.38-2.234-3.277-3.032-5.002 1.915-.173 3.99.345 5.586 1.552.957.69 1.436 1.553 1.915 2.588 0 .172.159.345.159.517-1.117-.862-2.234-2.07-3.192-3.105-.319-.345-.957.173-.478.69 1.276 1.38 2.713 2.76 4.309 3.795-1.915 1.208-3.99.345-5.267-1.035zm-15.481-2.242c-1.436 1.035-3.192 0-4.469-1.035l-4.788-3.622c1.756-.863 4.15-1.725 6.065-.863 1.436.69 2.234 1.898 2.873 3.277-.16-.172-.32-.345-.639-.517-1.755-1.38-3.99-2.07-6.224-2.242-.479 0-.479.862 0 .862 2.234 0 4.31.863 6.065 2.242.319.345.638.518.957.863-.16 0-.319.172-.319.345.16.517.32.69.479.69zm-57.456 7.417h-.16c-.957.172-1.915 0-2.713-.518-1.117-.517-2.234-1.38-2.394-2.76-.16-1.38.798-2.76 1.915-3.45 1.117-.69 2.554-.862 3.671-.344.639.345 1.117.69 1.596 1.207.479.518.798 1.208 1.277 1.898 0 0 0 .172.16.172v.69c0 .173.16.345.16.518-.16-.173-.48-.173-.64-.173-.638-.172-1.276-.172-1.755 0-.32 0-.479.173-.638.518-.16.345-.16.69 0 1.035.16.517.638.69 1.117 1.035-.639 0-1.117.172-1.596.172zm6.065.172c-.16 0-.16.173-.32.173 0 .345-.319.345-.638.517l-.957.518c-.639.172-1.277.517-1.916.517-.479 0-1.277 0-1.436-.345-.16-.172 0-.517.16-.69.16-.172.478-.345.797-.345a3.609 3.609 0 011.916 0c.479.173.638-.517.16-.69-.64-.172-1.277-.345-1.756-.69-.32-.172-.48-.172-.798-.345-.16-.172-.32-.172-.48-.517-.159-.345.32-.517.64-.517.957 0 1.915.345 2.553 1.035.32.345.798-.173.479-.518-.32-.517-.639-1.035-.639-1.725 0-.172-.16-.517 0-.69 0-.172.32-.172.48-.172.318 0 .638.345.957.69.638.862.798 2.07.957 3.277-.16.345-.16.345-.16.518zM5.08 37.642c-1.118 0-2.394-.517-3.033-1.552-.479-.518-.638-1.208-.638-2.07 0-.69.32-1.38.638-1.898.798-1.035 2.075-1.897 3.352-1.897 1.117 0 2.234.517 2.873 1.552l.16.173.478 1.035c.16.172.32.517.32.69-.64 0-1.118.172-1.597.517-.479.345-.798 1.035-.479 1.553.16.172.48.345.639.345h.638c-.957 1.035-2.234 1.552-3.351 1.552zm5.266-1.38c-.319.518-.638.862-.957 1.207-.16.173-.32.345-.639.345h-.16v-.172c0-.172.16-.345.32-.517l.479-.518c.32-.345.798-.517 1.117-.69 0 0-.16.173-.16.345zm.639-1.38c-.16.345-.16.518-.16.518 0-.173-.16-.345-.479-.345-.638.172-1.117.345-1.755.345-.32 0-.479 0-.798-.173-.16 0-.32 0-.16-.172 0-.173.32-.345.48-.518.159-.172.478-.172.797-.345H9.87l.319.345c.16.173.479.173.479-.172.16-.518-.16-.69-.48-.863-.318-.345-.478-.69-.797-1.207-.16-.345-.32-.518-.32-.863 0-.172-.159-.517 0-.69 0 0 .16 0 .16-.172h.32c.16 0 .319.172.478.345.639.69.798 1.725.958 2.76-.16.69-.16 1.035 0 1.207 0-.172 0 0 0 0zm71.66-2.415c-4.469 1.38-8.937 2.588-13.566 3.278-4.309.69-8.778.69-13.087.172-2.234-.172-4.31-.517-6.544-1.035 9.098-2.76 17.556-7.417 26.813-9.487 5.108-1.207 10.215-1.207 15.162.173 2.235.69 4.47 1.552 6.544 2.587-4.948 1.38-10.215 2.76-15.322 4.312zm14.524 5.175c-.16 0-.479-.172-.639-.172 0 0-.16 0-.16.172l.32-.172c.479-.173.798-.518 1.277-.69l2.394-1.38c1.436-.863 2.873-2.07 4.309-1.38-1.436.345-2.873 1.035-4.15 1.897-.478.345 0 1.035.479.69 1.277-.862 2.554-1.552 3.99-1.897-1.277 3.104-5.107 3.794-7.82 2.932zm21.705 8.452c-1.436 1.38-3.351 2.242-5.107 1.898 1.117-1.553 1.596-3.623 2.554-5.348.957-2.07 2.553-3.622 4.788-3.277-.639.517-1.277 1.035-1.756 1.725-1.436 1.897-2.075 4.485-4.149 5.52-.479.172 0 1.035.478.69 1.916-1.035 2.714-3.105 3.831-5.003.479-.862 1.277-1.552 1.915-2.242-.319 2.242-1.117 4.485-2.554 6.037zm16.12 0c-.479 1.897-1.436 3.795-2.554 5.347-1.755 2.933-4.309 5.52-7.501 6.555 1.437-2.587 1.756-5.692 2.394-8.797.319-1.725.798-3.45 1.596-5.002.798-1.553 2.235-3.45 4.15-2.933h.159c-2.394 4.485-3.511 10.005-6.543 14.145-.319.345.319 1.035.638.517 3.192-4.14 4.15-9.832 6.703-14.317 1.277.863 1.437 2.933.958 4.485zm20.588-10.35v.173c-.638.518-1.276 1.208-1.915 1.898-2.234 2.414-3.99 5.174-5.426 8.107-.798 1.725-1.437 3.45-2.075 5.347-.16.517.479.69.638.172.958-3.104 2.235-6.21 3.99-8.97a24.857 24.857 0 014.629-5.519c0 3.277-.16 6.555-1.437 9.487-.638 1.553-1.596 2.932-2.713 4.14a36 36 0 01-3.671 3.45c-.319.172-.638.517-1.117.69-.159.172-.319.172-.479.345-.159 0-.159.172-.319.172h-.159v-.172c0-.173 0-.173-.16-.345 0-.173-.16-.518-.16-.69-.159-.518-.319-.863-.319-1.38-.319-1.725-.479-3.623-.319-5.347.16-3.278 1.436-6.383 3.352-8.97.957-1.208 2.074-2.242 3.192-3.105 1.117-.69 2.872-1.552 3.99-.517.319.517.478.69.478 1.035zm10.853 1.725c.16 0 .16 0 .319-.172.32.517.479 1.208.639 1.725.798 2.242.957 4.83.957 7.245 0 1.38 0 2.932-.159 4.312 0 .517.638.517.638 0 .16-2.587.319-5.347 0-7.935-.159-1.897-.638-3.794-1.436-5.347.319 0 .479.172.798.345.479.345.957 1.035 1.277 1.552.798 1.208 1.276 2.415 1.596 3.795.638 2.76.319 5.693-.639 8.28-.479 1.38-1.117 2.587-1.915 3.622-.798-2.415-1.915-4.657-2.713-7.072s-1.437-5.175-.798-7.762c0-.69.479-1.898 1.436-2.587-.159 0-.159 0 0 0zm35.91 4.14c2.554 4.485 3.511 10.177 6.703 14.317.32.345.958-.172.639-.517-3.033-4.14-4.15-9.66-6.544-14.145h.16c1.915-.517 3.351 1.38 4.149 2.933.798 1.552 1.277 3.277 1.596 5.002.639 2.932.958 6.037 2.394 8.797-3.192-1.035-5.745-3.622-7.501-6.555-.957-1.724-2.075-3.45-2.553-5.347-.479-1.552-.32-3.622.957-4.485zm18.993 4.83c-2.075-1.035-2.873-3.622-4.15-5.52-.479-.69-1.117-1.207-1.756-1.725 2.075-.344 3.831 1.208 4.788 3.278.798 1.725 1.437 3.795 2.554 5.347-1.915.345-3.83-.345-5.107-1.897-1.437-1.553-2.235-3.795-2.394-6.038.798.69 1.436 1.38 1.915 2.243 1.117 1.725 1.915 3.967 3.83 5.002.32.345.798-.345.32-.69zm14.683-10.694c-1.277-.863-2.713-1.553-4.15-1.898 1.596-.69 3.033.518 4.309 1.38l2.394 1.38c.479.173.798.517 1.277.69l.319.172s-.159 0-.159-.172c-.16 0-.479.172-.639.172-2.872.863-6.543.173-7.66-3.104 1.436.345 2.713 1.035 3.99 1.897.319.518.798-.172.319-.517zm-50.753-5.865c.319.517.479 1.207.798 1.725-.958-.345-1.915-.863-2.873-1.208.639-.172 1.277-.345 2.075-.517zm-3.83-5.52c.957 1.035 1.915 2.07 2.713 3.277.319.518.479.863.798 1.38-.958.345-2.075.518-3.033.863l-5.266-2.07.638-.69s.16 0 .16-.172c1.117-1.035 1.915-2.415 2.553-3.795v-.173c.479.518.958.863 1.437 1.38zm-5.586-10.35a23.012 23.012 0 01-.479-4.657c0-1.552 0-3.277.319-4.83.16-.69.319-1.552.638-2.242 0-.172.16-.172.16-.345l.16.173.798.862c.957 1.208 1.915 2.415 2.872 3.795 1.596 2.587 2.873 5.865 2.714 8.97-.16 2.242-1.118 4.312-2.554 5.692.638-2.243.638-4.485.319-6.727-.479-3.45-1.596-6.555-2.713-9.832 0-.173-.16-.345-.479-.173-.159 0-.319.345-.159.518.638 1.724 1.276 3.45 1.755 5.347.798 2.932 1.437 6.037.958 8.97-.16.862-.319 1.724-.639 2.587-.159 0-.319-.173-.319-.173-.159-.172-.479-.172-.638-.345-1.437-2.242-2.235-5.002-2.713-7.59zm-12.29 6.555c3.192-.517 6.544-.517 9.736.173 1.596.345 3.192.69 4.788 1.38.319.517.638.862.958 1.38-.479 1.035-1.118 2.07-1.916 2.932 0 0-.159 0-.159.173l-1.117 1.207c-.32-.172-.639-.172-.958-.345-.958-.345-1.915-.69-3.032-1.035 0-.172.159-.345.159-.345.16-.345.319-.69.16-.862-.16-.345-.479-.345-.798-.518-1.117-.517-2.235-1.035-3.511-.69-1.277.345-2.235 1.208-3.033 2.07-.159.172-.159.172-.159.345-1.118.345-2.394.69-3.512 1.035-.319.173-.638.173-.957.345l-1.117-1.207s-.16 0-.16-.173c-.798-.862-1.436-1.897-1.915-2.932.479-.518.798-1.208 1.277-1.898 1.915-.345 3.67-.862 5.266-1.035zm6.384 5.52h-1.596c-.798-.172-1.755 0-2.553.172.638-.517 1.277-1.207 1.915-1.38.958-.344 1.915-.172 2.873.173.319.173.479.173.798.345.159 0 .159.173.319.173-.16.172-.16.517-.319.69-.479-.173-.958-.173-1.437-.173zm.798.69c-.478.517-1.117.69-1.915.69-.479 0-1.117-.172-1.596-.345-.319 0-.638-.172-.798-.345a3.61 3.61 0 011.915 0c.479 0 .958.172 1.596 0h.798zm-13.566-4.14c0-.172 0-.172 0 0-.159-.172-.319-.172-.319-.172.319-.173.479-.173.798-.173l-.159.173c-.16-.173-.16 0-.32.172zm-3.67-6.727c-.16-3.277.957-6.382 2.713-8.97.798-1.38 1.755-2.587 2.873-3.794l.798-.863.159-.172c0 .172.16.172.16.345.319.69.479 1.552.638 2.242.319 1.552.479 3.277.319 4.83 0 1.552-.159 3.105-.478 4.657-.479 2.415-1.277 5.002-2.394 7.072l-1.437.518-.479-2.07c-.478-3.105.16-6.037.958-8.97.479-1.725 1.117-3.622 1.756-5.347 0-.173 0-.345-.16-.517-.16 0-.319 0-.479.172-1.117 3.105-2.234 6.382-2.713 9.832-.319 2.242-.16 4.657.319 6.727-1.596-1.38-2.553-3.622-2.553-5.692zm-22.185 21.217c-5.267.517-10.693-.173-15.96-1.725l-4.309-1.553c0-.172-.16-.345-.319-.345-.319 0-.479 0-.798-.172-2.873-1.38-5.746-2.933-8.619-4.313l-.957-.517c3.99-.862 7.82-1.552 11.81-2.07 9.417-1.035 18.673-.69 27.93 1.035 4.309.863 8.619 1.897 12.928 2.932-6.863 2.933-13.885 6.038-21.706 6.728zm23.302-7.245c-2.713-.69-5.267-1.38-7.98-2.07h.159c.16 0 .16-.172.16-.172a44.696 44.696 0 017.82-4.485l1.437-.518c.159 0 .159.173.319.173 0 .172.16.345.16.517.638 1.38 1.436 2.76 2.553 3.795 0 0 .16 0 .16.172l.638.69c-1.915.518-3.671 1.208-5.426 1.898zm17.715 7.934c.639 1.208 1.596 2.243 2.714 3.105.638.518 1.276 1.035 1.915 1.38.319.173.638-.345.319-.517-1.915-1.38-3.99-2.932-4.788-5.175 1.117 0 2.394.69 3.192 1.552.479.518 1.117 1.035 1.436 1.553.479.517.798 1.207 1.118 2.07.159.69.319 1.552.159 2.242-1.277-.69-2.713-.69-3.99-1.207-.638-.173-1.277-.518-1.755-1.208-.479-.69-.798-1.552-.958-2.415-.16-.862 0-1.724.319-2.414 0 .345.16.69.319 1.034zm-.478-5.002l-3.352 1.035c-.16 0-.319.173-.319.345h-.319c0-.172-.16-.172-.32-.172l-3.351-1.035c-2.873-.863-5.586-1.725-8.459-2.415 3.032-1.208 6.065-2.415 9.097-3.277h.16c.159 0 .319-.173.319-.173.319.345.638.69 1.117.863.479.172 1.117.345 1.596.345 1.117.172 2.075-.173 2.873-.863l.16-.172c3.032.862 6.064 2.07 9.097 3.277-2.554.517-5.427 1.38-8.299 2.242zm19.471 20.01c-.16.517-.16.862-.319 1.38 0 .172-.16.517-.16.69 0 .172 0 .172-.16.344v.173h-.159c-.16 0-.16-.173-.319-.173-.16-.172-.32-.172-.479-.345-.319-.172-.639-.517-1.117-.69a36 36 0 01-3.671-3.45c-1.117-1.207-2.075-2.587-2.713-4.14-1.277-2.932-1.437-6.21-1.437-9.486a24.857 24.857 0 014.629 5.52c1.755 2.76 3.032 5.864 3.99 8.969.159.517.798.172.638-.173-.479-1.897-1.277-3.622-2.075-5.347-1.436-2.932-3.192-5.692-5.426-8.107-.639-.69-1.277-1.207-1.915-1.897v-.173-.172c.159-.173.319-.518.478-.69 1.277-1.035 2.873-.345 3.99.517 1.277.863 2.394 1.898 3.192 3.105 1.596 2.07 2.714 4.485 3.033 7.072v.518c0 .517.159.862.159 1.38.479 1.552.32 3.45-.159 5.174zm-.319-15.525c1.276-.517 2.553 0 3.511.69.957.69 1.755 1.725 2.234 2.76 1.117 2.07 1.437 4.485 1.277 6.727-.16 1.035-.319 1.898-.798 2.932 0-.172-.16-.517-.319-.69 0 0 .159-.172 0-.345-.319-2.587-.639-5.347-1.915-7.59-.639-1.207-1.596-2.242-2.554-3.104-.638-.518-1.117-1.035-1.756-1.38h.32zm-.639.517c.479.345.958.69 1.277 1.035.958.863 2.075 1.725 2.713 2.76.639 1.035 1.117 2.243 1.437 3.45.319 1.208.478 2.415.638 3.795-.16-.172-.319-.172-.479-.345-.319-.172-.638-.172-.798-.172-.159 0-.479-.173-.638-.345a3.447 3.447 0 01-1.277-.863c-.319-.345-.638-.862-.958-1.38a17.357 17.357 0 00-1.915-5.52v-.345c-.159-.69-.319-1.38 0-2.07zm-.638-.517c-.16.517-.319 1.035-.16 1.553-.479-.69-.957-1.38-1.596-1.898-.479-.517-1.117-1.207-1.755-1.552-.639-.518-1.437-1.035-2.235-1.208a2.898 2.898 0 00-2.394 0c-.638.345-1.277.69-1.436 1.553-1.437-1.208-2.873-2.07-4.469-2.933 2.075-.517 3.99-1.207 6.065-1.725 1.596.69 3.192 1.38 4.947 2.07 0 0 0 .173.16.173.319 1.552 1.596 2.76 2.873 3.967zm45.167-8.28c-2.873 1.553-5.746 3.105-8.619 4.313-.319 0-.479 0-.798.172-.159 0-.319.173-.319.345a21.603 21.603 0 01-4.309 1.553c-5.107 1.552-10.534 2.07-15.96 1.725-6.225-.518-12.289-2.76-18.035-5.003-.319-.69-.638-1.552-.958-2.242 3.352-.863 6.704-1.553 10.055-2.242 9.257-1.725 18.514-2.07 27.93-1.035 3.99.517 7.98 1.207 11.811 2.07-.32 0-.479.172-.798.344zm45.326 6.9c-4.309.518-8.778.345-13.087-.172-4.629-.69-9.097-1.898-13.566-3.278a228.663 228.663 0 00-15.481-4.14c2.074-1.035 4.309-1.897 6.543-2.587 4.948-1.552 10.215-1.38 15.162-.172 9.257 2.07 17.716 6.727 26.813 9.487-1.915.345-4.15.69-6.384.862zm47.561 1.898s-.16 0 0 0c-.319 0-.479-.173-.798-.346-.319-.345-.798-.69-.958-1.207-.159-.172-.159-.345-.319-.517.479.172.798.345 1.117.69l.479.517c.319.345.319.517.479.862 0-.172 0 0 0 0zm0-2.415c-.639 0-1.277-.173-1.756-.345-.159 0-.319 0-.479.345 0-.173-.159-.173-.159-.345v-.173c.159-.172.159-.517 0-.69.159-1.035.319-2.07.957-2.76.16-.172.32-.345.479-.345h.319s.16 0 .16.173c.16.172 0 .517 0 .69-.16.345-.16.517-.319.862-.16.345-.479.863-.798 1.208-.319.172-.639.345-.479.862 0 .345.319.345.479.173l.319-.345H327.473c.319 0 .478.172.798.345.159.172.478.172.478.517 0 .173-.159.173-.159.173-.319-.345-.639-.345-.798-.345zm6.703.69c-.798 1.035-1.915 1.552-3.032 1.552-1.277 0-2.394-.517-3.352-1.552h.638c.32 0 .479-.173.639-.345.319-.518 0-1.208-.479-1.553a2.915 2.915 0 00-1.596-.517c.16-.173.319-.345.319-.69l.479-1.035s.16 0 .16-.173c.638-1.035 1.755-1.552 2.872-1.552 1.277 0 2.554.862 3.352 1.897.479.518.638 1.208.638 1.898s-.319 1.38-.638 2.07z"
          ></path>
        </svg>